nRows=51
nColumns=19
inDegrees=yes
endheader
time	ground_force_vx	ground_force_vy	ground_force_vz	ground_force_px	ground_force_py	ground_force_pz	1_ground_force_vx	1_ground_force_vy	1_ground_force_vz	1_ground_force_px	1_ground_force_py	1_ground_force_pz	ground_torque_x	ground_torque_y	ground_torque_z	1_ground_torque_x	1_ground_torque_y	1_ground_torque_z
9.942	-0.126236	0.108202	0.054101	0.300000012	0	0.609999999	-0.090168	-0.108202	0	0.300000012	0	0.2050000005	0.649942	0.043281	-0.649942	-0	0.029575	0
9.943	-0.126236	0.054101	0.018034	0.300000012	0	0.609999999	-0.090168	-0.036067	-0.018034	0.300000012	0	0.2050000005	-10.79338	0.043281	10.79338	-0	0.033182	0
9.944	-0.126236	0.14427	0.018034	0.300000012	0	0.609999999	-0.072135	-0.072135	0.018034	0.300000012	0	0.2050000005	-0.009725	0.043281	0.009725	-0	0.031018	0
9.945	-0.14427	0.126236	0	0.300000012	0	0.609999999	-0.072135	-0.108202	0.036067	0.300000012	0	0.2050000005	-0.048351	0.041838	0.048351	-0	0.034625	0
9.946	-0.108202	0.072135	0.018034	0.300000012	0	0.609999999	-0.090168	-0.108202	0.036067	0.300000012	0	0.2050000005	1.618459	0.033903	-1.618459	-0	0.036789	0
9.947	-0.108202	0.162303	0.054101	0.300000012	0	0.609999999	-0.108202	-0.072135	0.036067	0.300000012	0	0.2050000005	0.068583	0.033903	-0.068583	-0	0.038953	0
9.948	-0.14427	0.108202	0.054101	0.300000012	0	0.609999999	-0.072135	-0.036067	0.036067	0.300000012	0	0.2050000005	0.058197	0.038231	-0.058197	-0	0.036067	0
9.949	-0.126236	0.072135	0.036067	0.300000012	0	0.609999999	-0.090168	-0.072135	0.018034	0.300000012	0	0.2050000005	-0.503131	0.04833	0.503131	-0	0.030297	0
9.95	-0.108202	0.126236	0	0.300000012	0	0.609999999	-0.108202	-0.054101	0.018034	0.300000012	0	0.2050000005	0.15652	0.041838	-0.15652	-0	0.028133	0
9.951	-0.126236	0.108202	0	0.300000012	0	0.609999999	-0.072135	-0.108202	0.018034	0.300000012	0	0.2050000005	0.427276	0.044002	-0.427276	-0	0.032461	0
9.952	-0.126236	0.126236	0.054101	0.300000012	0	0.609999999	-0.072135	-0.126236	0.036067	0.300000012	0	0.2050000005	0.183707	0.051937	-0.183707	-0	0.028854	0
9.953	-0.108202	0.108202	0.054101	0.300000012	0	0.609999999	-0.090169	-0.036068	0.054101	0.300000012	0	0.2050000005	0.225651	0.049773	-0.225651	-0	0.027411	0
9.954	-0.108202	0.126236	0.054101	0.300000012	0	0.609999999	-0.054101	-0.072135	0.018034	0.300000012	0	0.2050000005	-0.017185	0.054101	0.017185	-0	0.034625	0
9.955	-0.108202	0.126236	0.054101	0.300000012	0	0.609999999	-0.054101	-0.036067	0	0.300000012	0	0.2050000005	-0.011897	0.046888	0.011897	-0	0.031018	0
9.956	-0.144269	0.090169	0.054101	0.300000012	0	0.609999999	-0.054101	-0.036067	0.018034	0.300000012	0	0.2050000005	-0.043876	0.04256	0.043876	-0	0.020198	0
9.957	-0.14427	0.108202	0.036067	0.300000012	0	0.609999999	-0.054101	-0.036067	0.018034	0.300000012	0	0.2050000005	-0.061328	0.050495	0.061328	-0	0.024526	0
9.958	-0.126236	0.108202	0.018034	0.300000012	0	0.609999999	-0.072135	-0.018034	0.018034	0.300000012	0	0.2050000005	-0.020914	0.049052	0.020914	-0	0.033903	0
9.959	-0.144269	0.054101	0.036067	0.300000012	0	0.609999999	-0.054101	-0.054101	0.018034	0.300000012	0	0.2050000005	0.414797	0.047609	-0.414797	-0	0.028854	0
9.96	-0.126236	0.072135	0.018034	0.300000012	0	0.609999999	-0.072135	-0.090168	-0.036067	0.300000012	0	0.2050000005	-0.355284	0.041838	0.355284	-0	0.027411	0
9.961	-0.126236	0.108202	0.018034	0.300000012	0	0.609999999	-0.054101	-0.108202	-0.018034	0.300000012	0	0.2050000005	-0.032127	0.041838	0.032127	-0	0.028854	0
9.962	-0.126236	0.108202	0	0.300000012	0	0.609999999	-0.054101	-0.090168	0	0.300000012	0	0.2050000005	0.157179	0.038232	-0.157179	-0	0.018034	0
9.963	-0.108202	0.072135	0	0.300000012	0	0.609999999	-0.036067	-0.072135	-0.018034	0.300000012	0	0.2050000005	1.272914	0.036068	-1.272914	-0	0.023805	0
9.964	-0.126236	0.126236	0.054101	0.300000012	0	0.609999999	-0.036067	-0.090168	-0.036067	0.300000012	0	0.2050000005	-0.011379	0.041838	0.011379	-0	0.020198	0
9.965	-0.108202	0.072135	0.036067	0.300000012	0	0.609999999	-0.054101	-0.054101	0.018034	0.300000012	0	0.2050000005	0.354644	0.040396	-0.354644	-0	0.025969	0
9.966	-0.072135	0.108202	0.036067	0.300000012	0	0.609999999	-0.072135	-0.072135	0.036067	0.300000012	0	0.2050000005	-0.518264	0.040396	0.518264	-0	0.024526	0
9.967	-0.090168	0.198371	0.054101	0.300000012	0	0.609999999	-0.090168	-0.126236	0.018034	0.300000012	0	0.2050000005	0.015464	0.034625	-0.015464	-0	0.023083	0
9.968	-0.108202	0.072135	0.018034	0.300000012	0	0.609999999	-0.072135	-0.090168	0	0.300000012	0	0.2050000005	-1.018838	0.036789	1.018838	-0	0.028854	0
9.969	-0.108202	0.036067	0.036067	0.300000012	0	0.609999999	-0.126236	-0.090169	0	0.300000012	0	0.2050000005	51.40181	0.033182	-51.40181	-0	0.028133	0
9.97	-0.108202	0.072135	0	0.300000012	0	0.609999999	-0.090168	-0.162303	-0.018034	0.300000012	0	0.2050000005	3.428859	0.03751	-3.428859	-0	0.031739	0
9.971	-0.108202	0.054101	0.054101	0.300000012	0	0.609999999	-0.072135	-0.126236	0	0.300000012	0	0.2050000005	7.999744	0.033903	-7.999744	-0	0.03751	0
9.972	-0.108202	0.108202	0.036067	0.300000012	0	0.609999999	-0.108202	-0.126236	0.018034	0.300000012	0	0.2050000005	-0.06736	0.041838	0.06736	-0	0.031018	0
9.973	-0.090168	0.14427	0.018034	0.300000012	0	0.609999999	-0.090169	-0.14427	0.036067	0.300000012	0	0.2050000005	0.06073	0.051937	-0.06073	-0	0.029575	0
9.974	-0.090168	0.144269	0.072135	0.300000012	0	0.609999999	-0.072135	-0.14427	0.018034	0.300000012	0	0.2050000005	-0.062315	0.041117	0.062315	-0	0.031018	0
9.975	-0.126236	0.144269	0.018034	0.300000012	0	0.609999999	-0.072135	-0.036067	0.018034	0.300000012	0	0.2050000005	-0.014332	0.044724	0.014332	-0	0.028133	0
9.976	-0.090168	0.108202	0.072135	0.300000012	0	0.609999999	-0.072135	-0.036067	0.018034	0.300000012	0	0.2050000005	0.089986	0.045445	-0.089986	-0	0.029575	0
9.977	-0.090168	0.126236	0.072135	0.300000012	0	0.609999999	-0.090168	-0.108202	0.018034	0.300000012	0	0.2050000005	-0.144524	0.038231	0.144524	-0	0.031739	0
9.978	-0.126236	0.144269	0.054101	0.300000012	0	0.609999999	-0.072135	-0.090168	0.018034	0.300000012	0	0.2050000005	-0.16644	0.041838	0.16644	-0	0.029575	0
9.979	-0.108202	0.126236	0.072135	0.300000012	0	0.609999999	-0.072135	-0.072135	0	0.300000012	0	0.2050000005	-0.281435	0.040396	0.281435	-0	0.030297	0
9.98	-0.144269	0.126236	0.054101	0.300000012	0	0.609999999	-0.072135	0	-0.018034	0.300000012	0	0.2050000005	-0.015838	0.036789	0.015838	0	0.033903	-0
9.981	-0.108202	0.180337	0.054101	0.300000012	0	0.609999999	-0.054101	-0.036067	0	0.300000012	0	0.2050000005	-0.017879	0.04833	0.017879	-0	0.029575	0
9.982	-0.126236	0.180337	0.018034	0.300000012	0	0.609999999	-0.054101	-0.090169	0	0.300000012	0	0.2050000005	0.022259	0.038953	-0.022259	-0	0.033903	0
9.983	-0.108202	0.108202	0.018034	0.300000012	0	0.609999999	-0.072135	-0.036068	-0.018034	0.300000012	0	0.2050000005	-0.033662	0.036789	0.033662	-0	0.028133	0
9.984	-0.090168	0.090169	0.018034	0.300000012	0	0.609999999	-0.090169	-0.090168	0	0.300000012	0	0.2050000005	-0.697955	0.031739	0.697955	-0	0.02669	0
9.985	-0.126236	0.036067	0.018034	0.300000012	0	0.609999999	-0.072135	-0.072135	0.018034	0.300000012	0	0.2050000005	4.277879	0.031739	-4.277879	-0	0.032461	0
9.986	-0.108202	0.054101	0.018034	0.300000012	0	0.609999999	-0.072135	-0.018034	0.018034	0.300000012	0	0.2050000005	-1.119089	0.033903	1.119089	-0	0.032461	0
9.987	-0.108202	0.14427	0.054101	0.300000012	0	0.609999999	-0.090169	-0.054101	0	0.300000012	0	0.2050000005	-0.063821	0.038231	0.063821	-0	0.031018	0
9.988	-0.126236	0.054101	0.036067	0.300000012	0	0.609999999	-0.072135	-0.108202	0.018034	0.300000012	0	0.2050000005	0.431691	0.044002	-0.431691	-0	0.029575	0
9.989	-0.144269	0.054101	0.018034	0.300000012	0	0.609999999	-0.108202	-0.090169	0.018034	0.300000012	0	0.2050000005	-3.197291	0.038231	3.197291	-0	0.033903	0
9.99	-0.108202	0.090169	0.036067	0.300000012	0	0.609999999	-0.090168	-0.054101	0.018034	0.300000012	0	0.2050000005	0.03906	0.038953	-0.03906	-0	0.031739	0
9.991	-0.108202	0.090169	0.018034	0.300000012	0	0.609999999	-0.054101	-0.090168	0.018034	0.300000012	0	0.2050000005	0.12621	0.035346	-0.12621	-0	0.024526	0
9.992	-0.144269	0.126236	0.018034	0.300000012	0	0.609999999	-0.090168	-0.054101	0	0.300000012	0	0.2050000005	0.041656	0.031018	-0.041656	-0	0.032461	0
